<svg xmlns="http://www.w3.org/2000/svg" xmlns:xlink="http://www.w3.org/1999/xlink" width="50" zoomAndPan="magnify" viewBox="0 0 37.5 37.499999" height="50" preserveAspectRatio="xMidYMid meet" version="1.0"><defs><clipPath id="723812864f"><path d="M 0 0 L 37.007812 0 L 37.007812 37.007812 L 0 37.007812 Z M 0 0 " clip-rule="nonzero"/></clipPath></defs><g clip-path="url(#723812864f)"><path fill="#ffffff" d="M 0 0 L 37.007812 0 L 37.007812 37.007812 L 0 37.007812 Z M 0 0 " fill-opacity="1" fill-rule="nonzero"/><path fill="#ffffff" d="M 0 0 L 37.007812 0 L 37.007812 37.007812 L 0 37.007812 Z M 0 0 " fill-opacity="1" fill-rule="nonzero"/></g><path fill="#000000" d="M 23.335938 4.554688 C 23.335938 5.0625 23.167969 5.5625 22.925781 5.792969 C 22.765625 5.941406 22.578125 6.015625 22.136719 6.121094 C 20.648438 6.472656 18.910156 7.652344 17.980469 8.949219 C 17.699219 9.332031 17.613281 9.410156 17.183594 9.609375 C 14.84375 10.699219 13.148438 12.199219 12.59375 13.667969 C 12.449219 14.054688 12.308594 14.871094 12.386719 14.871094 C 12.40625 14.871094 12.835938 14.65625 13.34375 14.394531 C 14.394531 13.84375 15.214844 13.484375 15.542969 13.417969 C 15.742188 13.386719 15.792969 13.335938 15.882812 13.113281 C 16.8125 10.785156 18.238281 9.402344 20.140625 8.992188 C 20.835938 8.847656 22.296875 8.859375 23.113281 9.019531 C 24.265625 9.25 25.242188 9.640625 26.203125 10.269531 C 27.71875 11.246094 29.03125 12.914062 29.585938 14.546875 C 29.667969 14.796875 29.757812 15.003906 29.78125 15.003906 C 29.871094 15.003906 30.269531 14.023438 30.445312 13.394531 C 30.585938 12.867188 30.605469 12.648438 30.605469 11.789062 C 30.605469 10.964844 30.585938 10.707031 30.46875 10.28125 C 30.285156 9.621094 29.78125 8.601562 29.367188 8.058594 C 28.898438 7.441406 27.960938 6.589844 27.191406 6.070312 C 26.449219 5.574219 24.90625 4.785156 24.09375 4.492188 C 23.796875 4.382812 23.507812 4.277344 23.453125 4.253906 C 23.347656 4.214844 23.335938 4.246094 23.335938 4.554688 Z M 23.335938 4.554688 " fill-opacity="1" fill-rule="nonzero"/><path fill="#000000" d="M 12.925781 4.632812 C 11.5 5.011719 10.238281 5.742188 8.832031 7 C 8.273438 7.503906 7.042969 8.8125 6.894531 9.070312 C 6.871094 9.117188 6.992188 9.199219 7.230469 9.289062 C 7.679688 9.457031 8.058594 9.75 8.171875 10.027344 C 8.230469 10.175781 8.242188 10.46875 8.21875 11.15625 C 8.152344 12.90625 8.5625 14.382812 9.507812 15.832031 C 9.769531 16.230469 9.789062 16.28125 9.859375 16.984375 C 10.140625 19.6875 11.070312 21.785156 12.394531 22.6875 C 12.683594 22.886719 13.113281 23.085938 13.15625 23.042969 C 13.167969 23.023438 13.164062 22.882812 13.132812 22.726562 C 12.996094 21.996094 12.863281 20.796875 12.847656 20.105469 L 12.828125 19.347656 L 12.195312 18.691406 C 11.4375 17.921875 11.039062 17.378906 10.707031 16.652344 C 10.328125 15.84375 10.21875 15.351562 10.226562 14.453125 C 10.226562 13.597656 10.328125 13.117188 10.738281 12.097656 C 11.746094 9.570312 13.84375 7.738281 16.542969 7.011719 C 17.234375 6.824219 18.367188 6.691406 18.871094 6.734375 C 19.199219 6.761719 19.210938 6.753906 19.140625 6.640625 C 18.96875 6.34375 17.839844 5.492188 17.183594 5.15625 C 16.152344 4.632812 15.742188 4.527344 14.515625 4.503906 C 13.597656 4.484375 13.433594 4.496094 12.925781 4.632812 Z M 12.925781 4.632812 " fill-opacity="1" fill-rule="nonzero"/><path fill="#000000" d="M 20.015625 10.640625 L 19.796875 10.707031 L 20.558594 11.488281 C 21.417969 12.378906 21.945312 12.984375 22.09375 13.285156 C 22.148438 13.402344 22.199219 13.496094 22.207031 13.503906 C 22.214844 13.515625 22.554688 13.5625 22.964844 13.617188 C 25.882812 13.996094 27.558594 15.40625 28.242188 18.058594 C 28.75 20 28.570312 22.007812 27.730469 23.835938 C 27.191406 25.003906 26.035156 26.414062 25.070312 27.09375 C 24.824219 27.269531 24.621094 27.429688 24.621094 27.453125 C 24.621094 27.601562 26.691406 27.652344 27.34375 27.511719 C 30.089844 26.933594 31.816406 25.042969 32.664062 21.667969 C 32.9375 20.570312 33.246094 18.203125 33.113281 18.203125 C 33.078125 18.203125 32.914062 18.25 32.738281 18.300781 C 32.117188 18.492188 31.574219 18.390625 31.296875 18.039062 C 31.21875 17.933594 31.015625 17.632812 30.847656 17.363281 C 30.019531 16.070312 28.648438 14.984375 27.082031 14.394531 C 26.589844 14.207031 26.539062 14.164062 26.054688 13.625 C 25.484375 12.976562 24.484375 12.09375 23.804688 11.644531 C 23.207031 11.246094 22.257812 10.808594 21.71875 10.675781 C 21.25 10.566406 20.355469 10.546875 20.015625 10.640625 Z M 20.015625 10.640625 " fill-opacity="1" fill-rule="nonzero"/><path fill="#000000" d="M 6.980469 13.785156 C 5.625 14.523438 4.554688 15.675781 4.027344 16.972656 C 3.246094 18.902344 3.515625 21.324219 4.804688 23.933594 C 5.191406 24.722656 5.964844 26.035156 6.023438 26.019531 C 6.050781 26.003906 6.183594 25.851562 6.324219 25.671875 C 6.84375 25.011719 7.339844 24.933594 8.328125 25.34375 C 9.199219 25.710938 9.78125 25.804688 11.117188 25.804688 C 12.175781 25.800781 12.328125 25.785156 12.945312 25.621094 C 13.316406 25.515625 13.652344 25.441406 13.683594 25.441406 C 13.722656 25.441406 14.035156 25.5 14.386719 25.570312 C 15.414062 25.78125 16.042969 25.84375 16.980469 25.851562 C 18.25 25.851562 19.121094 25.695312 19.886719 25.324219 C 20.480469 25.035156 21.269531 24.375 21.148438 24.273438 C 21.136719 24.261719 20.6875 24.175781 20.15625 24.082031 C 19.058594 23.894531 18.042969 23.652344 17.789062 23.507812 C 17.621094 23.425781 17.570312 23.445312 16.699219 23.882812 C 14.925781 24.773438 13.515625 24.945312 12.046875 24.445312 C 10.476562 23.914062 8.738281 22.285156 7.84375 20.519531 C 6.84375 18.519531 6.664062 15.933594 7.382812 13.953125 C 7.472656 13.714844 7.523438 13.523438 7.5 13.523438 C 7.480469 13.523438 7.242188 13.644531 6.980469 13.785156 Z M 6.980469 13.785156 " fill-opacity="1" fill-rule="nonzero"/><path fill="#000000" d="M 16.054688 15.8125 C 16.054688 16.644531 16.042969 16.734375 15.84375 17.308594 C 15.582031 18.070312 15.3125 18.527344 14.90625 18.886719 C 14.734375 19.046875 14.605469 19.179688 14.621094 19.1875 C 14.632812 19.199219 14.816406 19.238281 15.03125 19.28125 C 16.101562 19.496094 17.652344 20.628906 18.082031 21.519531 C 18.152344 21.675781 18.238281 21.796875 18.257812 21.796875 C 18.28125 21.796875 18.382812 21.636719 18.480469 21.449219 C 18.9375 20.585938 20.359375 19.539062 21.414062 19.296875 C 21.605469 19.25 21.785156 19.199219 21.808594 19.1875 C 21.84375 19.171875 21.71875 19.019531 21.554688 18.851562 C 20.789062 18.089844 20.230469 16.3125 20.445312 15.320312 C 20.480469 15.132812 20.5 14.964844 20.480469 14.941406 C 20.460938 14.921875 20.367188 14.960938 20.269531 15.015625 C 19.71875 15.375 19.097656 15.53125 18.238281 15.53125 C 17.492188 15.523438 16.914062 15.394531 16.429688 15.121094 C 16.242188 15.015625 16.082031 14.933594 16.074219 14.933594 C 16.0625 14.933594 16.054688 15.332031 16.054688 15.8125 Z M 16.054688 15.8125 " fill-opacity="1" fill-rule="nonzero"/><path fill="#000000" d="M 25.003906 17.371094 C 24.515625 18.347656 24.082031 19.097656 23.753906 19.546875 L 23.472656 19.929688 L 23.597656 20.496094 C 23.683594 20.859375 23.742188 21.398438 23.765625 22.035156 C 23.796875 22.894531 23.785156 23.078125 23.65625 23.625 C 23.394531 24.792969 22.753906 25.792969 21.808594 26.550781 C 20.769531 27.378906 19.757812 27.890625 18.480469 28.222656 C 17.769531 28.410156 17.648438 28.421875 16.539062 28.429688 C 15.621094 28.4375 15.230469 28.410156 14.8125 28.320312 C 13.542969 28.042969 12.4375 27.582031 11.578125 26.96875 C 11.304688 26.769531 11.066406 26.609375 11.058594 26.609375 C 11.019531 26.609375 11.148438 27.261719 11.277344 27.742188 C 11.558594 28.742188 12.085938 29.699219 12.753906 30.410156 C 13.746094 31.476562 14.992188 32.097656 16.621094 32.355469 C 17.492188 32.496094 19.28125 32.453125 20.355469 32.257812 C 21.089844 32.128906 22.414062 31.824219 22.523438 31.757812 C 22.546875 31.738281 22.496094 31.628906 22.40625 31.507812 C 22.035156 31.019531 21.898438 30.449219 22.054688 30.046875 C 22.085938 29.957031 22.226562 29.757812 22.363281 29.609375 C 23.40625 28.46875 24.09375 26.730469 24.203125 24.941406 L 24.246094 24.265625 L 24.804688 23.144531 C 25.679688 21.386719 25.992188 20.289062 26 18.941406 C 26 18.269531 25.980469 18.101562 25.820312 17.621094 C 25.722656 17.320312 25.570312 16.992188 25.492188 16.890625 L 25.335938 16.703125 Z M 25.003906 17.371094 " fill-opacity="1" fill-rule="nonzero"/></svg>